<svg width="17" height="16" viewBox="0 0 17 16" fill="none" xmlns="http://www.w3.org/2000/svg">
<path d="M10 3.25H7C5.983 3.25 5.149 3.25 4.4575 3.2905C3.22375 3.36325 2.4415 3.56575 1.879 4.129C1 5.00725 1 6.42175 1 9.25C1 12.0782 1 13.4927 1.879 14.371C2.75725 15.25 4.17175 15.25 7 15.25H10C12.8282 15.25 14.2427 15.25 15.121 14.371C16 13.4927 16 12.0782 16 9.25C16 6.42175 16 5.00725 15.121 4.129C14.5585 3.5665 13.7763 3.364 12.5433 3.2905C11.851 3.25 11.017 3.25 10 3.25Z" stroke="#C8C8C8" stroke-width="0.8"/>
<path d="M4.45752 3.2905C5.07477 3.2755 5.62002 2.8405 5.83002 2.26L5.85627 2.18275L5.87502 2.125C5.90652 2.02975 5.92302 1.9825 5.93952 1.9405C6.04547 1.67711 6.22398 1.44919 6.45433 1.28324C6.68467 1.11728 6.95739 1.02011 7.24077 1.003C7.28502 1 7.33602 1 7.43502 1H9.56352C9.66327 1 9.71352 1 9.75852 1.003C10.0419 1.02011 10.3146 1.11728 10.545 1.28324C10.7753 1.44919 10.9538 1.67711 11.0598 1.9405C11.077 1.9825 11.0928 2.0305 11.1243 2.125L11.1438 2.18275C11.1573 2.2225 11.1633 2.24275 11.17 2.26C11.38 2.84125 11.9253 3.2755 12.5425 3.2905" stroke="#C8C8C8" stroke-width="0.8"/>
<path d="M15.7464 5.29004C13.4889 6.75704 12.3602 7.49054 11.1707 7.86029C9.43142 8.40067 7.56916 8.40067 5.82992 7.86029C4.63967 7.49054 3.51092 6.75779 1.25342 5.29004M5.49992 7.00004V8.50004M11.4999 7.00004V8.50004" stroke="#C8C8C8" stroke-width="0.8" stroke-linecap="round"/>
</svg>
