<svg width="12" height="12" viewBox="0 0 12 12" fill="none" xmlns="http://www.w3.org/2000/svg">
<path d="M11.997 12V11.9995H12V7.59851C12 5.44551 11.5365 3.78701 9.0195 3.78701C7.8095 3.78701 6.9975 4.45101 6.666 5.08051H6.631V3.98801H4.2445V11.9995H6.7295V8.03251C6.7295 6.98801 6.9275 5.97801 8.221 5.97801C9.4955 5.97801 9.5145 7.17001 9.5145 8.09951V12H11.997Z" fill="#048B94"/>
<path d="M0.198 3.98849H2.686V12H0.198V3.98849Z" fill="#048B94"/>
<path d="M1.441 0C0.6455 0 0 0.6455 0 1.441C0 2.2365 0.6455 2.8955 1.441 2.8955C2.2365 2.8955 2.882 2.2365 2.882 1.441C2.8815 0.6455 2.236 0 1.441 0Z" fill="#048B94"/>
</svg>
